<?xml version="1.0" encoding="UTF-8" standalone="no"?>
<!-- Created with Inkscape (http://www.inkscape.org/) -->

<svg
   xmlns:dc="http://purl.org/dc/elements/1.1/"
   xmlns:cc="http://creativecommons.org/ns#"
   xmlns:rdf="http://www.w3.org/1999/02/22-rdf-syntax-ns#"
   xmlns:svg="http://www.w3.org/2000/svg"
   xmlns="http://www.w3.org/2000/svg"
   xmlns:sodipodi="http://sodipodi.sourceforge.net/DTD/sodipodi-0.dtd"
   xmlns:inkscape="http://www.inkscape.org/namespaces/inkscape"
   width="744.09448819"
   height="1052.3622047"
   id="svg2"
   version="1.1"
   inkscape:version="0.48.3.1 r9886"
   sodipodi:docname="flag.svg">
  <defs
     id="defs4">
    <clipPath
       clipPathUnits="userSpaceOnUse"
       id="clipPath3074">
      <rect
         style="fill:#000000;fill-opacity:0.84018267"
         id="rect3076"
         width="456"
         height="472"
         x="119"
         y="170.36218" />
    </clipPath>
    <clipPath
       clipPathUnits="userSpaceOnUse"
       id="clipPath3078">
      <rect
         style="fill:#000000;fill-opacity:0.84018267"
         id="rect3080"
         width="456"
         height="472"
         x="119"
         y="170.36218" />
    </clipPath>
    <clipPath
       clipPathUnits="userSpaceOnUse"
       id="clipPath3082">
      <rect
         style="fill:#000000;fill-opacity:0.84018267"
         id="rect3084"
         width="456"
         height="472"
         x="119"
         y="170.36218" />
    </clipPath>
    <clipPath
       clipPathUnits="userSpaceOnUse"
       id="clipPath3086">
      <rect
         style="fill:#000000;fill-opacity:0.84018267"
         id="rect3088"
         width="456"
         height="472"
         x="119"
         y="170.36218" />
    </clipPath>
    <clipPath
       clipPathUnits="userSpaceOnUse"
       id="clipPath3090">
      <rect
         style="fill:#000000;fill-opacity:0.84018267"
         id="rect3092"
         width="456"
         height="472"
         x="119"
         y="170.36218" />
    </clipPath>
    <clipPath
       clipPathUnits="userSpaceOnUse"
       id="clipPath3094">
      <rect
         style="fill:#000000;fill-opacity:0.84018267"
         id="rect3096"
         width="456"
         height="472"
         x="119"
         y="170.36218" />
    </clipPath>
    <clipPath
       clipPathUnits="userSpaceOnUse"
       id="clipPath3098">
      <rect
         style="fill:#000000;fill-opacity:0.84018267"
         id="rect3100"
         width="456"
         height="472"
         x="119"
         y="170.36218" />
    </clipPath>
    <clipPath
       clipPathUnits="userSpaceOnUse"
       id="clipPath3102">
      <rect
         style="fill:#000000;fill-opacity:0.84018267"
         id="rect3104"
         width="456"
         height="472"
         x="119"
         y="170.36218" />
    </clipPath>
    <clipPath
       clipPathUnits="userSpaceOnUse"
       id="clipPath3106">
      <rect
         style="fill:#000000;fill-opacity:0.84018267"
         id="rect3108"
         width="456"
         height="472"
         x="119"
         y="170.36218" />
    </clipPath>
    <clipPath
       clipPathUnits="userSpaceOnUse"
       id="clipPath3110">
      <rect
         style="fill:#000000;fill-opacity:0.84018267"
         id="rect3112"
         width="456"
         height="472"
         x="119"
         y="170.36218" />
    </clipPath>
    <clipPath
       clipPathUnits="userSpaceOnUse"
       id="clipPath3114">
      <rect
         style="fill:#000000;fill-opacity:0.84018267"
         id="rect3116"
         width="456"
         height="472"
         x="119"
         y="170.36218" />
    </clipPath>
    <clipPath
       clipPathUnits="userSpaceOnUse"
       id="clipPath3118">
      <rect
         style="fill:#000000;fill-opacity:0.84018267"
         id="rect3120"
         width="456"
         height="472"
         x="119"
         y="170.36218" />
    </clipPath>
  </defs>
  <sodipodi:namedview
     id="base"
     pagecolor="#ffffff"
     bordercolor="#666666"
     borderopacity="1.0"
     inkscape:pageopacity="0.0"
     inkscape:pageshadow="2"
     inkscape:zoom="1"
     inkscape:cx="376.452"
     inkscape:cy="621.10027"
     inkscape:document-units="px"
     inkscape:current-layer="layer1"
     showgrid="false"
     inkscape:window-width="1920"
     inkscape:window-height="1056"
     inkscape:window-x="0"
     inkscape:window-y="24"
     inkscape:window-maximized="1" />
  <metadata
     id="metadata7">
    <rdf:RDF>
      <cc:Work
         rdf:about="">
        <dc:format>image/svg+xml</dc:format>
        <dc:type
           rdf:resource="http://purl.org/dc/dcmitype/StillImage" />
        <dc:title></dc:title>
      </cc:Work>
    </rdf:RDF>
  </metadata>
  <g
     inkscape:label="Layer 1"
     inkscape:groupmode="layer"
     id="layer1">
    <path
       style="fill:none;stroke:#000000;stroke-width:1px;stroke-linecap:butt;stroke-linejoin:miter;stroke-opacity:1"
       d="M 205.71429,636.6479 250,336.6479"
       id="path2989"
       inkscape:connector-curvature="0"
       clip-path="url(#clipPath3118)" />
    <path
       style="fill:none;stroke:#000000;stroke-width:0.99778616px;stroke-linecap:butt;stroke-linejoin:miter;stroke-opacity:1"
       d="M 202.40932,636.49501 254.55844,192.67372"
       id="path2995"
       inkscape:connector-curvature="0"
       clip-path="url(#clipPath3114)" />
    <path
       style="fill:none;stroke:#000000;stroke-width:1px;stroke-linecap:butt;stroke-linejoin:miter;stroke-opacity:1"
       d="m 237.38585,335.15388 c 12.28514,-3.1687 28.80575,-5.56632 37.30529,6.32369 10.14436,10.93828 21.63724,21.0863 28.38437,34.60874 11.03043,12.30902 29.74596,10.40506 43.77465,5.10147 15.96755,-2.74862 28.48091,10.61034 37.64672,21.81159 10.32118,13.68292 21.36364,30.55732 40.07253,32.39558 18.27016,1.89792 35.70999,-11.47244 53.91552,-4.59351 14.98998,3.93865 27.98618,12.73195 41.74363,19.50986"
       id="path2997"
       inkscape:connector-curvature="0"
       clip-path="url(#clipPath3110)" />
    <path
       style="fill:none;stroke:#000000;stroke-width:1px;stroke-linecap:butt;stroke-linejoin:miter;stroke-opacity:1"
       d="m 254.28571,193.07647 c 20.07174,9.87323 30.40137,35.64185 54.48093,37.90026 15.32425,2.01128 35.03889,-2.16135 45.4067,12.39388 11.93398,16.05732 17.31362,35.97635 18.30346,55.69909 5.50579,18.51882 29.18433,17.26596 40.39425,30.34942 9.05027,14.86595 16.08527,35.23768 35.32356,39.16158 17.68657,2.52071 31.35009,17.24176 36.30641,33.8653 7.64852,12.80364 24.92839,15.97382 31.34494,30.18099 4.6728,7.18266 8.05119,15.14052 10.58261,23.30662"
       id="path3015"
       inkscape:connector-curvature="0"
       clip-path="url(#clipPath3106)" />
    <path
       style="fill:none;stroke:#000000;stroke-width:1px;stroke-linecap:butt;stroke-linejoin:miter;stroke-opacity:1"
       d="m 526.6083,456.10071 c -2.18866,-1.97822 -4.37733,-3.95643 -6.56599,-5.93465"
       id="path3024"
       inkscape:connector-curvature="0"
       clip-path="url(#clipPath3102)" />
    <path
       style="fill:none;stroke:#000000;stroke-width:1px;stroke-linecap:butt;stroke-linejoin:miter;stroke-opacity:1"
       d="m 249.93384,336.65332 0.67869,-3.72494"
       id="path3029"
       inkscape:connector-curvature="0"
       clip-path="url(#clipPath3098)" />
    <path
       style="fill:#d40000;fill-opacity:0.84018267000000002"
       d="m 522.42197,451.44001 c -1.45268,-1.35607 -2.59822,-2.15783 -4.14016,-2.89772 -1.17249,-0.5626 -5.43945,-2.80139 -9.48213,-4.9751 -14.32568,-7.70275 -20.19287,-10.33753 -29.12697,-13.08004 -5.96892,-1.83228 -7.91742,-2.16972 -12.48153,-2.16152 -5.75462,0.0103 -7.96808,0.39274 -21.30021,3.67993 -8.53994,2.10563 -11.59778,2.64675 -15.96599,2.82537 -6.34484,0.25946 -11.2045,-0.77505 -16.86397,-3.58995 -7.7401,-3.84976 -13.91596,-9.86592 -24.3673,-23.73722 -10.90707,-14.47616 -18.99397,-21.83618 -27.90473,-25.39655 -3.39539,-1.35666 -6.24089,-1.81341 -10.4837,-1.68283 -3.31077,0.1019 -3.87968,0.18976 -5.93465,0.91658 -9.61121,3.39938 -19.63247,4.17942 -27.63479,2.15106 -4.30617,-1.0915 -9.74369,-4.1862 -12.43961,-7.07985 -0.37315,-0.40052 -1.2098,-1.69418 -1.85923,-2.87479 -3.82257,-6.94917 -9.02834,-13.43641 -19.96831,-24.88379 -3.45584,-3.61613 -7.18663,-7.57827 -8.29064,-8.80476 -2.95743,-3.28554 -5.62185,-5.09533 -9.33358,-6.33977 -5.85251,-1.96219 -13.09194,-2.00589 -22.36518,-0.13502 -2.12697,0.42912 -3.90679,0.74064 -3.95516,0.69228 -0.12466,-0.12467 16.20043,-139.54136 16.35817,-139.69909 0.18734,-0.18734 2.55622,1.14107 4.80689,2.6956 3.62953,2.50689 7.38864,5.87493 15.73559,14.09858 12.01132,11.83387 16.25115,15.09849 23.36272,17.989 5.28846,2.14952 9.22693,2.71177 22.60216,3.2267 11.00697,0.42375 15.62566,1.01696 20.07679,2.57859 5.76793,2.02363 9.31157,4.80262 13.30782,10.43628 9.39232,13.24067 15.32277,30.85057 16.74824,49.73231 0.15729,2.08344 0.46391,4.35628 0.68138,5.05076 1.01251,3.23341 3.16301,6.507 6.08604,9.26444 3.23808,3.05464 7.39432,5.43951 16.17565,9.28167 8.76181,3.83361 12.58061,6.0508 15.92497,9.24598 2.13811,2.04274 2.58624,2.75699 8.86478,14.12924 4.98673,9.0324 8.12854,13.56307 12.36181,17.82646 4.7953,4.82941 9.36779,7.50362 15.2267,8.90529 1.42046,0.33983 3.64243,0.86983 4.93771,1.17777 11.98916,2.85033 22.82051,12.1464 28.9785,24.87095 0.87384,1.80565 1.94093,4.30578 2.37132,5.55584 1.86893,5.4283 5.39614,8.96315 17.0231,17.05995 7.5893,5.28506 11.45455,8.88864 13.58789,12.66798 0.46143,0.81749 1.61349,2.80385 2.5601,4.41413 3.10258,5.27781 6.23052,11.94266 7.90879,16.85175 0.32883,0.96187 0.59788,1.78578 0.59788,1.83091 0,0.30276 -0.62884,-0.17597 -2.38716,-1.8174 l 0,0 z"
       id="path3033"
       inkscape:connector-curvature="0"
       clip-path="url(#clipPath3094)" />
    <path
       style="fill:#784421;stroke:#000000;stroke-width:0.93600415999999997px;stroke-linecap:butt;stroke-linejoin:miter;stroke-opacity:1"
       d="m 201.82322,636.81253 4.40029,0.1395"
       id="path3037"
       inkscape:connector-curvature="0"
       clip-path="url(#clipPath3090)" />
    <path
       style="fill:#784421;fill-opacity:0.84018267"
       d="m 204.16096,636.40567 c -0.39064,-0.0139 -0.8241,-0.0295 -0.96324,-0.0346 l -0.25297,-0.009 1.80582,-15.42061 c 0.99321,-8.48134 1.80666,-15.42416 1.80767,-15.4285 0.001,-0.004 0.7263,-0.008 1.61176,-0.008 1.06819,0 1.60993,0.0108 1.60993,0.032 0,0.0176 -1.00927,6.86811 -2.24283,15.22331 -1.23356,8.3552 -2.25856,15.30137 -2.27776,15.43592 l -0.0349,0.24465 -0.17659,-0.005 c -0.0971,-0.003 -0.49621,-0.0163 -0.88686,-0.0302 z"
       id="path3039"
       inkscape:connector-curvature="0"
       clip-path="url(#clipPath3086)" />
    <path
       style="fill:#784421;fill-opacity:0.84018267"
       d="m 215.69026,527.8142 c 0,-0.0867 3.47545,-29.86727 7.72322,-66.17908 4.24777,-36.3118 7.72321,-66.09355 7.72321,-66.18166 0,-0.1521 0.2438,-0.1602 4.82143,-0.1602 2.65179,0 4.82143,0.0151 4.82143,0.0335 0,0.0184 -4.39955,29.83658 -9.77678,66.26256 -5.37724,36.42597 -9.77679,66.26357 -9.77679,66.30577 0,0.0422 -1.24554,0.0767 -2.76786,0.0767 -2.58571,0 -2.76786,-0.0104 -2.76786,-0.15763 z"
       id="path3041"
       inkscape:connector-curvature="0"
       clip-path="url(#clipPath3082)" />
    <path
       style="fill:#784421;fill-opacity:0.84018267"
       d="m 206.58817,605.40486 c 0.003,-0.0368 2.04243,-17.46428 4.53256,-38.72768 l 4.52753,-38.66071 2.79088,-0.0236 2.79088,-0.0236 -0.0467,0.20217 c -0.0619,0.26782 -11.38588,77.03094 -11.38588,77.18276 0,0.0929 -0.33713,0.11762 -1.60715,0.11762 -0.88392,0 -1.60487,-0.0301 -1.60209,-0.067 z"
       id="path3043"
       inkscape:connector-curvature="0"
       clip-path="url(#clipPath3078)" />
    <path
       style="fill:#784421;fill-opacity:0.84018267"
       d="m 231.21209,394.94486 c 0.0649,-0.46296 6.93737,-59.26309 6.93737,-59.35555 0,-0.14784 4.6418,-1.17257 7.36702,-1.62635 1.86551,-0.31063 4.3665,-0.63436 4.4231,-0.57253 0.0182,0.0199 -0.0803,0.63276 -0.21889,1.36196 -0.13857,0.72921 -0.27236,1.56448 -0.2973,1.85616 -0.0509,0.59521 -8.60293,58.56739 -8.64623,58.6107 -0.0152,0.0152 -2.18474,0.0393 -4.82116,0.0534 l -4.79349,0.0258 0.0496,-0.35355 z"
       id="path3045"
       inkscape:connector-curvature="0"
       clip-path="url(#clipPath3074)" />
  </g>
</svg>
