<?xml version="1.0" encoding="UTF-8" standalone="no"?>
<!-- Created with Inkscape (http://www.inkscape.org/) -->

<svg
   xmlns:dc="http://purl.org/dc/elements/1.1/"
   xmlns:cc="http://creativecommons.org/ns#"
   xmlns:rdf="http://www.w3.org/1999/02/22-rdf-syntax-ns#"
   xmlns:svg="http://www.w3.org/2000/svg"
   xmlns="http://www.w3.org/2000/svg"
   xmlns:sodipodi="http://sodipodi.sourceforge.net/DTD/sodipodi-0.dtd"
   xmlns:inkscape="http://www.inkscape.org/namespaces/inkscape"
   width="626.29456"
   height="660.63977"
   id="svg2"
   version="1.1"
   inkscape:version="0.48.3.1 r9886"
   sodipodi:docname="sad.svg"
   inkscape:export-filename="/home/justin/Programming/thumbtack/app/images/happy.png"
   inkscape:export-xdpi="90"
   inkscape:export-ydpi="90">
  <defs
     id="defs4">
    <clipPath
       clipPathUnits="userSpaceOnUse"
       id="clipPath3774">
      <rect
         style="fill:#d4aa00;fill-opacity:0"
         id="rect3776"
         width="308.55423"
         height="113.37143"
         x="197.09697"
         y="489.79074"
         clip-path="none" />
    </clipPath>
  </defs>
  <sodipodi:namedview
     id="base"
     pagecolor="#ffffff"
     bordercolor="#666666"
     borderopacity="1.0"
     inkscape:pageopacity="0.0"
     inkscape:pageshadow="2"
     inkscape:zoom="0.49497475"
     inkscape:cx="-339.05065"
     inkscape:cy="386.94393"
     inkscape:document-units="px"
     inkscape:current-layer="layer1"
     showgrid="false"
     inkscape:window-width="1920"
     inkscape:window-height="1056"
     inkscape:window-x="0"
     inkscape:window-y="24"
     inkscape:window-maximized="1"
     showborder="true"
     inkscape:showpageshadow="true"
     borderlayer="false"
     fit-margin-top="0"
     fit-margin-left="0"
     fit-margin-right="0"
     fit-margin-bottom="0" />
  <metadata
     id="metadata7">
    <rdf:RDF>
      <cc:Work
         rdf:about="">
        <dc:format>image/svg+xml</dc:format>
        <dc:type
           rdf:resource="http://purl.org/dc/dcmitype/StillImage" />
        <dc:title></dc:title>
      </cc:Work>
    </rdf:RDF>
  </metadata>
  <g
     inkscape:label="Layer 1"
     inkscape:groupmode="layer"
     id="layer1"
     transform="translate(-52.527931,-9.8847561)">
    <path
       sodipodi:type="arc"
       style="fill:#ff8500;fill-opacity:1"
       id="path2989"
       sodipodi:cx="370.71429"
       sodipodi:cy="385.21933"
       sodipodi:rx="285"
       sodipodi:ry="307.14285"
       d="m 655.71429,385.21933 c 0,169.63031 -127.59884,307.14285 -285,307.14285 -157.40115,0 -284.999996,-137.51254 -284.999996,-307.14285 0,-169.63031 127.598846,-307.142853 284.999996,-307.142853 157.40116,0 285,137.512543 285,307.142853 z"
       transform="translate(1.4285712,-50.000004)" />
    <path
       sodipodi:type="arc"
       style="fill:#241c1c"
       id="path2985"
       sodipodi:cx="220.71428"
       sodipodi:cy="200.93361"
       sodipodi:rx="53.57143"
       sodipodi:ry="52.857143"
       d="m 274.28571,200.93361 c 0,29.19219 -23.98475,52.85714 -53.57143,52.85714 -29.58668,0 -53.57143,-23.66495 -53.57143,-52.85714 0,-29.1922 23.98475,-52.85714 53.57143,-52.85714 29.58668,0 53.57143,23.66494 53.57143,52.85714 z"
       transform="translate(14.327768,47.865853)" />
    <path
       sodipodi:type="arc"
       style="fill:#241c1c"
       id="path2987"
       sodipodi:cx="465.71429"
       sodipodi:cy="222.36218"
       sodipodi:rx="70"
       sodipodi:ry="61.42857"
       d="m 535.71429,222.36218 c 0,33.92606 -31.34006,61.42857 -70,61.42857 -38.65993,0 -70,-27.50251 -70,-61.42857 0,-33.92606 31.34007,-61.42857 70,-61.42857 38.65994,0 70,27.50251 70,61.42857 z"
       transform="matrix(1.1473842,0,0,1.1914473,-115.45258,-28.270053)" />
    <rect
       style="fill:#d4aa00;fill-opacity:0"
       id="rect3764"
       width="432.85715"
       height="171.42857"
       x="152.85716"
       y="803.79083" />
    <rect
       style="fill:#d4aa00;fill-opacity:0"
       id="rect3778"
       width="626.29456"
       height="660.63977"
       x="52.527931"
       y="9.8847561" />
    <path
       style="fill:#ffffff;fill-opacity:0.84018266"
       clip-path="none"
       d="m 551.61813,143.39146 c 17.6215,38.13368 32.08643,88.64259 39.99383,144.90666 8.00433,56.95372 7.89864,110.05793 1.23303,151.80576 20.96974,-29.66451 30.1022,-88.71687 20.87002,-154.40723 -9.17666,-65.29533 -33.97313,-119.33028 -62.09688,-142.30519 z"
       id="path3799"
       inkscape:connector-curvature="0" />
    <path
       id="path3919"
       style="fill:none;stroke:#000000;stroke-width:1px;stroke-linecap:butt;stroke-linejoin:miter;stroke-opacity:1"
       d="m 526.10007,462.62251 c 2.83034,-0.40933 5.67877,0.33723 8.51204,-0.0118 2.4699,0.65818 4.9137,1.51463 7.46977,1.74133 2.15767,0.75212 3.67622,2.86074 6.05097,3.07863 1.97569,0.47528 3.96237,1.2391 5.44273,2.67872 2.75162,1.74983 6.12939,2.84327 9.38601,2.06711 0.066,-0.007 0.13205,-0.0135 0.19808,-0.0202 M 165.85442,440.1624 c -0.11677,0.27931 0.1554,0.50774 0.27881,0.73097 0.17895,0.26367 0.39118,0.50193 0.5525,0.77776 0.13748,0.18311 0.27473,0.36677 0.36182,0.58066 0.0891,0.22417 0.25995,0.39751 0.3671,0.61076 0.10094,0.22958 0.32606,0.34062 0.49862,0.50423 0.14931,0.13945 0.29295,0.28938 0.47118,0.39265 0.0287,0.0642 0.24231,0.41311 0.18459,0.33284 m -0.88372,-0.85206 c 14.06249,10.34817 34.99332,9.65659 48.46003,-1.4001 22.00189,1.32009 29.81339,27.03259 49.54687,33.35278 16.35927,9.55774 35.68257,9.89757 54.00895,10.80458 18.71797,2.62962 38.41457,2.87321 55.91613,-5.24102 14.69472,-5.20291 33.19013,-11.83559 46.89344,-0.72254 13.44076,11.0104 28.43399,22.57956 46.85284,20.6984 17.1647,2.30787 35.71553,1.94925 50.6061,-7.9841 14.4881,-6.05082 31.08618,-8.79199 42.68529,-20.21358 M 165.66502,440.20975 c 22.87726,-3.61237 40.11589,-26.13769 64.5547,-22.5954 24.77028,7.52792 33.56654,39.81934 60.60792,42.78437 20.79369,3.77192 43.71263,-0.18139 60.31725,-13.8046 21.36381,-9.33809 45.25157,-7.49035 67.96248,-9.26829 14.28226,0.61255 25.95446,11.71018 31.17569,24.43194 10.20775,14.83182 30.77572,13.04839 45.04302,5.81271 9.80156,-3.65903 20.37243,-7.56401 30.9634,-5.13737" />
    <path
       style="fill:#ff8400;fill-opacity:1"
       d="m 419.88588,490.42849 c -1.80565,-0.25036 -4.03192,-0.34781 -4.94726,-0.21655 -0.91535,0.13126 -3.73728,0.007 -6.27097,-0.27566 -5.64761,-0.63054 -12.42212,-2.97328 -18.74742,-6.48317 -4.2178,-2.34046 -6.62236,-4.049 -18.78964,-13.3509 -11.1107,-8.49414 -23.37466,-8.77056 -45.03119,-1.01496 -12.77448,4.57478 -14.66804,5.18782 -18.37198,5.94795 -8.90924,1.82836 -22.13641,2.38395 -31.53574,1.3246 -2.22234,-0.25046 -7.44988,-0.6967 -11.61676,-0.99163 -22.71406,-1.60771 -28.35892,-2.34567 -36.87057,-4.82012 -6.0211,-1.75042 -20.70007,-8.68754 -24.38857,-11.52578 -1.61428,-1.24216 -6.94709,-6.23296 -11.85067,-11.09067 -9.9041,-9.81143 -14.09265,-12.92766 -20.26349,-15.0758 -5.25855,-1.83056 -7.65583,-1.85944 -9.94294,-0.11978 -2.47098,1.87951 -9.28446,5.02415 -12.8513,5.93128 -7.44597,1.89368 -16.05907,1.50559 -23.2206,-1.04627 -5.93442,-2.11461 -10.94433,-5.37051 -10.17618,-6.61341 0.15936,-0.25785 1.03395,-0.59304 1.94352,-0.74485 3.38448,-0.56491 10.45088,-3.51993 17.31112,-7.23915 20.27709,-10.99303 24.01236,-12.68861 31.12894,-14.13061 5.27081,-1.068 11.32361,-0.77313 15.19022,0.74002 6.32946,2.47695 10.18636,5.61023 23.38137,18.99461 18.04643,18.30544 21.61909,20.61094 35.35534,22.81539 7.14075,1.14597 20.81422,1.1649 27.27412,0.0377 11.20593,-1.95526 20.91235,-5.86799 29.47751,-11.88258 3.71015,-2.60533 8.67505,-4.63358 15.62776,-6.38422 9.46185,-2.38241 17.25912,-3.18555 42.54049,-4.38176 14.56839,-0.68931 16.57575,-0.53091 22.2337,1.75443 7.70403,3.1118 16.21778,11.70675 19.74342,19.93173 1.21489,2.83422 6.55513,8.17926 9.79238,9.80118 5.40475,2.70788 7.59808,3.16589 15.13808,3.16112 8.0516,-0.005 12.15823,-0.87288 20.16349,-4.26078 11.18258,-4.73258 20.44389,-6.89611 27.28104,-6.37311 2.51808,0.19261 6.51024,0.4462 8.87147,0.56353 5.68822,0.28264 11.28861,1.55147 14.39468,3.26127 1.38896,0.76458 3.41919,1.67578 4.51162,2.02488 1.09244,0.34911 2.98663,1.26916 4.20932,2.04457 1.22268,0.7754 3.33393,1.69453 4.69166,2.04251 2.90605,0.74479 2.79259,1.04055 -1.52296,3.97003 -5.95441,4.04195 -13.04648,7.04371 -34.36554,14.54543 -1.25006,0.43987 -3.40926,1.4693 -4.79822,2.28763 -5.56461,3.27847 -12.06386,5.52607 -19.44365,6.72409 -4.80519,0.78007 -19.96917,0.85078 -25.2556,0.11777 l 0,0 z"
       id="path3934"
       inkscape:connector-curvature="0"
       transform="translate(52.527931,9.8847561)" />
    <path
       style="fill:#241c1c;fill-opacity:1"
       d="m 419.88588,490.42849 c -1.80565,-0.25036 -4.02352,-0.34918 -4.92861,-0.21958 -3.10611,0.44477 -10.51156,-0.66435 -15.07472,-2.25775 -8.11207,-2.83263 -13.65256,-6.16864 -25.63079,-15.43265 -9.39213,-7.2639 -13.93043,-9.03376 -22.8417,-8.90785 -6.97033,0.0985 -13.50798,1.53884 -24.77067,5.45737 -18.81531,6.54626 -22.11708,7.26216 -35.29543,7.65288 -6.45588,0.19142 -11.43402,0.0338 -17.17259,-0.54369 -4.44467,-0.44729 -12.05869,-1.04592 -16.92005,-1.33029 -13.56994,-0.7938 -23.73311,-2.36134 -31.56727,-4.86883 -2.52235,-0.80733 -13.85735,-5.85565 -17.67767,-7.87318 -3.61009,-1.90651 -7.53311,-5.23725 -15.96364,-13.55355 -11.36751,-11.21349 -16.10148,-14.58185 -23.02986,-16.38647 -4.10446,-1.06907 -5.49274,-0.94657 -7.88759,0.69598 -10.45509,7.17083 -24.10088,8.97825 -35.93851,4.76015 -5.9587,-2.12326 -10.9442,-5.37073 -10.16949,-6.62422 0.16304,-0.26381 1.15126,-0.63891 2.19605,-0.83357 3.92202,-0.73073 11.32105,-4.02245 21.59759,-9.60845 19.37743,-10.53297 23.57246,-12.06756 33.0825,-12.10196 4.92636,-0.0178 6.2461,0.15585 8.69097,1.14363 6.35267,2.56662 10.26763,5.7243 22.62375,18.24757 6.52812,6.61642 13.28505,13.18066 15.01541,14.58719 6.32944,5.14491 12.14727,7.60603 21.00831,8.88717 21.95238,3.1739 40.13592,-0.54293 56.65778,-11.58119 6.12647,-4.0931 14.51798,-6.84647 26.01762,-8.53673 11.03408,-1.62184 44.26303,-3.29807 48.49616,-2.44638 10.90384,2.1938 19.58929,9.55788 26.26943,22.27293 1.97941,3.76763 5.97754,7.54893 10.22844,9.67372 8.78875,4.39301 21.5608,3.93646 33.5606,-1.19966 5.49186,-2.35062 14.11553,-5.09565 19.30725,-6.14577 3.25188,-0.65775 5.42834,-0.78165 9.09138,-0.51755 2.64878,0.19097 6.63424,0.44932 8.85658,0.57412 5.42099,0.30441 11.13914,1.58963 13.78776,3.09895 1.19406,0.68044 3.35326,1.64394 4.79823,2.14113 1.44497,0.49718 3.48076,1.48325 4.52399,2.19126 1.04322,0.70801 3.0255,1.57657 4.40507,1.93014 2.95233,0.75666 2.84443,1.04207 -1.51246,4.00078 -4.94358,3.35712 -11.53526,6.3362 -23.47721,10.61042 -6.38921,2.2868 -13.67792,5.25889 -16.19713,6.60465 -5.52124,2.94942 -12.3892,5.2653 -18.60411,6.2733 -5.10369,0.82778 -20.08097,0.92506 -25.55537,0.16598 z"
       id="path3936"
       inkscape:connector-curvature="0"
       transform="translate(52.527931,9.8847561)" />
  </g>
  <g
     inkscape:groupmode="layer"
     id="layer2"
     inkscape:label="Layer"
     transform="translate(-52.527931,-9.8847561)" />
</svg>
